<!DOCTYPE svg PUBLIC "-//W3C//DTD SVG 1.1//EN" "http://www.w3.org/Graphics/SVG/1.1/DTD/svg11.dtd">
<!-- Uploaded to: SVG Repo, www.svgrepo.com, Transformed by: SVG Repo Mixer Tools -->
<svg height="256px" width="256px" version="1.1" id="Layer_1" xmlns="http://www.w3.org/2000/svg" xmlns:xlink="http://www.w3.org/1999/xlink" viewBox="0 0 503.467 503.467" xml:space="preserve" fill="#000000" transform="matrix(1, 0, 0, 1, 0, 0)rotate(0)">
<g id="SVGRepo_bgCarrier" stroke-width="0"/>
<g id="SVGRepo_tracerCarrier" stroke-linecap="round" stroke-linejoin="round" stroke="#CCCCCC" stroke-width="16.110944"> <path style="fill:#49a26f;" d="M251.733,55.467c22.187,0,42.667,5.12,61.44,13.653c20.48,9.387,36.693,23.893,48.64,42.667 c11.947,17.92,17.92,39.253,17.92,63.147V243.2v68.267v68.267V499.2h-256V379.733v-68.267V243.2v-59.733c0-2.56,0-5.973,0-8.533 c1.707-23.04,8.533-43.52,20.48-61.44s28.16-32.427,46.933-42.667C209.067,60.587,230.4,55.467,251.733,55.467"/> <path style="fill:#000000;" d="M499.2,503.467h-17.067c-2.56,0-4.267-1.707-4.267-4.267c0-2.56,1.707-4.267,4.267-4.267H499.2 c2.56,0,4.267,1.707,4.267,4.267C503.467,501.76,501.76,503.467,499.2,503.467z M448,503.467H89.6c-2.56,0-4.267-1.707-4.267-4.267 c0-2.56,1.707-4.267,4.267-4.267h29.867V384H72.533c-2.56,0-4.267-1.707-4.267-4.267c0-2.56,1.707-4.267,4.267-4.267h46.933v-59.733 H72.533c-2.56,0-4.267-1.707-4.267-4.267c0-2.56,1.707-4.267,4.267-4.267h46.933v-59.733H72.533c-2.56,0-4.267-1.707-4.267-4.267 s1.707-4.267,4.267-4.267h46.933v-55.467c0-1.707,0-2.56,0-4.267H72.533c-2.56,0-4.267-1.707-4.267-4.267 c0-2.56,1.707-4.267,4.267-4.267h47.787c1.707-20.48,8.533-39.253,18.773-56.32L102.4,93.013c-1.707-0.853-2.56-3.413-1.707-5.973 c0.853-1.707,3.413-2.56,5.973-1.707l37.547,21.333c11.093-15.36,25.6-29.013,41.813-38.4l-23.04-39.253 c-0.853-1.707-0.853-4.267,1.707-5.973c1.707-0.853,4.267-0.853,5.973,1.707l23.04,40.107c16.213-8.533,34.987-12.8,54.613-13.653 V4.267c0-2.56,1.707-4.267,4.267-4.267s4.267,1.707,4.267,4.267V51.2c19.627,0.853,38.4,5.12,55.467,11.947l22.187-38.4 c0.853-1.707,3.413-2.56,5.973-1.707c1.707,0.853,2.56,3.413,1.707,5.973L320,66.56c17.92,9.387,33.28,23.04,44.373,38.4 l34.987-19.627c1.707-0.853,4.267-0.853,5.973,1.707c0.853,1.707,0.853,4.267-1.707,5.973l-34.133,19.627 c10.24,17.067,16.213,36.693,16.213,57.173h46.933c2.56,0,4.267,1.707,4.267,4.267s-1.707,4.267-4.267,4.267h-46.933v59.733h46.933 c2.56,0,4.267,1.707,4.267,4.267c0,2.56-1.707,4.267-4.267,4.267h-46.933v59.733h46.933c2.56,0,4.267,1.707,4.267,4.267 s-1.707,4.267-4.267,4.267h-46.933v59.733h46.933c2.56,0,4.267,1.707,4.267,4.267c0,2.56-1.707,4.267-4.267,4.267h-46.933v81.067 c0,2.56-1.707,4.267-4.267,4.267s-4.267-1.707-4.267-4.267v-81.067h-12.8c-2.56,0-4.267-1.707-4.267-4.267 c0-2.56,1.707-4.267,4.267-4.267h12.8V314.88h-12.8c-2.56,0-4.267-1.707-4.267-4.267s1.707-4.267,4.267-4.267h12.8v-59.733h-12.8 c-2.56,0-4.267-1.707-4.267-4.267c0-2.56,1.707-4.267,4.267-4.267h12.8v-59.733h-12.8c-2.56,0-4.267-1.707-4.267-4.267 s1.707-4.267,4.267-4.267h12.8c-0.853-19.627-5.973-37.547-15.36-52.907l-17.067,10.24c-1.707,0.853-4.267,0.853-5.973-1.707 c-0.853-1.707-0.853-4.267,1.707-5.973l17.067-10.24c-10.24-14.507-23.893-26.453-40.96-35.84l-7.68,13.653 c-0.853,1.707-3.413,2.56-5.973,1.707c-1.707-0.853-2.56-3.413-1.707-5.973l7.68-12.8c-15.36-6.827-32.427-10.24-51.2-11.093v12.8 c0,2.56-1.707,4.267-4.267,4.267c-2.56,0-4.267-1.707-4.267-4.267v-12.8c-17.92,0.853-34.987,5.12-50.347,12.8l6.827,11.947 c0.853,1.707,0.853,4.267-1.707,5.973c-1.707,0.853-4.267,0.853-5.973-1.707l-6.827-11.947c-15.36,8.533-29.013,21.333-39.253,35.84 l14.507,8.533c1.707,0.853,2.56,3.413,1.707,5.973c-0.853,1.707-3.413,2.56-5.973,1.707l-14.507-8.533 c-9.387,15.36-15.36,33.28-17.92,52.053h11.947c2.56,0,4.267,1.707,4.267,4.267s-1.707,4.267-4.267,4.267h-12.8 c0,1.707,0,2.56,0,4.267v55.467h12.8c2.56,0,4.267,1.707,4.267,4.267c0,2.56-1.707,4.267-4.267,4.267h-12.8v59.733h12.8 c2.56,0,4.267,1.707,4.267,4.267c0,2.56-1.707,4.267-4.267,4.267h-12.8v59.733h12.8c2.56,0,4.267,1.707,4.267,4.267 c0,2.56-1.707,4.267-4.267,4.267h-12.8v110.933h320c2.56,0,4.267,1.707,4.267,4.267C453.12,502.614,450.56,503.467,448,503.467z M55.467,503.467h-51.2C1.707,503.467,0,501.76,0,499.2c0-2.56,1.707-4.267,4.267-4.267h51.2c2.56,0,4.267,1.707,4.267,4.267 C59.733,501.76,58.027,503.467,55.467,503.467z M200.533,469.333c-2.56,0-4.267-1.707-4.267-4.267v-85.333 c0-2.56,1.707-4.267,4.267-4.267s4.267,1.707,4.267,4.267v85.333C204.8,467.627,203.093,469.333,200.533,469.333z M302.933,452.267 c-2.56,0-4.267-1.707-4.267-4.267v-34.133c0-2.56,1.707-4.267,4.267-4.267s4.267,1.707,4.267,4.267V448 C307.2,450.56,305.493,452.267,302.933,452.267z M251.733,435.2c-2.56,0-4.267-1.707-4.267-4.267v-102.4 c0-2.56,1.707-4.267,4.267-4.267c2.56,0,4.267,1.707,4.267,4.267v102.4C256,433.493,254.293,435.2,251.733,435.2z M302.933,366.933 c-2.56,0-4.267-1.707-4.267-4.267v-102.4c0-2.56,1.707-4.267,4.267-4.267s4.267,1.707,4.267,4.267v102.4 C307.2,365.227,305.493,366.933,302.933,366.933z M200.533,332.8c-2.56,0-4.267-1.707-4.267-4.267V294.4 c0-2.56,1.707-4.267,4.267-4.267s4.267,1.707,4.267,4.267v34.133C204.8,331.093,203.093,332.8,200.533,332.8z M251.733,281.6 c-2.56,0-4.267-1.707-4.267-4.267V243.2c0-2.56,1.707-4.267,4.267-4.267c2.56,0,4.267,1.707,4.267,4.267v34.133 C256,279.893,254.293,281.6,251.733,281.6z M200.533,247.467c-2.56,0-4.267-1.707-4.267-4.267V140.8c0-2.56,1.707-4.267,4.267-4.267 s4.267,1.707,4.267,4.267v102.4C204.8,245.76,203.093,247.467,200.533,247.467z M302.933,213.333c-2.56,0-4.267-1.707-4.267-4.267 V140.8c0-2.56,1.707-4.267,4.267-4.267s4.267,1.707,4.267,4.267v68.267C307.2,211.627,305.493,213.333,302.933,213.333z M251.733,196.267c-2.56,0-4.267-1.707-4.267-4.267v-68.267c0-2.56,1.707-4.267,4.267-4.267c2.56,0,4.267,1.707,4.267,4.267V192 C256,194.56,254.293,196.267,251.733,196.267z"/> </g>
<g id="SVGRepo_iconCarrier"> <path style="fill:#49a26f;" d="M251.733,55.467c22.187,0,42.667,5.12,61.44,13.653c20.48,9.387,36.693,23.893,48.64,42.667 c11.947,17.92,17.92,39.253,17.92,63.147V243.2v68.267v68.267V499.2h-256V379.733v-68.267V243.2v-59.733c0-2.56,0-5.973,0-8.533 c1.707-23.04,8.533-43.52,20.48-61.44s28.16-32.427,46.933-42.667C209.067,60.587,230.4,55.467,251.733,55.467"/> <path style="fill:#000000;" d="M499.2,503.467h-17.067c-2.56,0-4.267-1.707-4.267-4.267c0-2.56,1.707-4.267,4.267-4.267H499.2 c2.56,0,4.267,1.707,4.267,4.267C503.467,501.76,501.76,503.467,499.2,503.467z M448,503.467H89.6c-2.56,0-4.267-1.707-4.267-4.267 c0-2.56,1.707-4.267,4.267-4.267h29.867V384H72.533c-2.56,0-4.267-1.707-4.267-4.267c0-2.56,1.707-4.267,4.267-4.267h46.933v-59.733 H72.533c-2.56,0-4.267-1.707-4.267-4.267c0-2.56,1.707-4.267,4.267-4.267h46.933v-59.733H72.533c-2.56,0-4.267-1.707-4.267-4.267 s1.707-4.267,4.267-4.267h46.933v-55.467c0-1.707,0-2.56,0-4.267H72.533c-2.56,0-4.267-1.707-4.267-4.267 c0-2.56,1.707-4.267,4.267-4.267h47.787c1.707-20.48,8.533-39.253,18.773-56.32L102.4,93.013c-1.707-0.853-2.56-3.413-1.707-5.973 c0.853-1.707,3.413-2.56,5.973-1.707l37.547,21.333c11.093-15.36,25.6-29.013,41.813-38.4l-23.04-39.253 c-0.853-1.707-0.853-4.267,1.707-5.973c1.707-0.853,4.267-0.853,5.973,1.707l23.04,40.107c16.213-8.533,34.987-12.8,54.613-13.653 V4.267c0-2.56,1.707-4.267,4.267-4.267s4.267,1.707,4.267,4.267V51.2c19.627,0.853,38.4,5.12,55.467,11.947l22.187-38.4 c0.853-1.707,3.413-2.56,5.973-1.707c1.707,0.853,2.56,3.413,1.707,5.973L320,66.56c17.92,9.387,33.28,23.04,44.373,38.4 l34.987-19.627c1.707-0.853,4.267-0.853,5.973,1.707c0.853,1.707,0.853,4.267-1.707,5.973l-34.133,19.627 c10.24,17.067,16.213,36.693,16.213,57.173h46.933c2.56,0,4.267,1.707,4.267,4.267s-1.707,4.267-4.267,4.267h-46.933v59.733h46.933 c2.56,0,4.267,1.707,4.267,4.267c0,2.56-1.707,4.267-4.267,4.267h-46.933v59.733h46.933c2.56,0,4.267,1.707,4.267,4.267 s-1.707,4.267-4.267,4.267h-46.933v59.733h46.933c2.56,0,4.267,1.707,4.267,4.267c0,2.56-1.707,4.267-4.267,4.267h-46.933v81.067 c0,2.56-1.707,4.267-4.267,4.267s-4.267-1.707-4.267-4.267v-81.067h-12.8c-2.56,0-4.267-1.707-4.267-4.267 c0-2.56,1.707-4.267,4.267-4.267h12.8V314.88h-12.8c-2.56,0-4.267-1.707-4.267-4.267s1.707-4.267,4.267-4.267h12.8v-59.733h-12.8 c-2.56,0-4.267-1.707-4.267-4.267c0-2.56,1.707-4.267,4.267-4.267h12.8v-59.733h-12.8c-2.56,0-4.267-1.707-4.267-4.267 s1.707-4.267,4.267-4.267h12.8c-0.853-19.627-5.973-37.547-15.36-52.907l-17.067,10.24c-1.707,0.853-4.267,0.853-5.973-1.707 c-0.853-1.707-0.853-4.267,1.707-5.973l17.067-10.24c-10.24-14.507-23.893-26.453-40.96-35.84l-7.68,13.653 c-0.853,1.707-3.413,2.56-5.973,1.707c-1.707-0.853-2.56-3.413-1.707-5.973l7.68-12.8c-15.36-6.827-32.427-10.24-51.2-11.093v12.8 c0,2.56-1.707,4.267-4.267,4.267c-2.56,0-4.267-1.707-4.267-4.267v-12.8c-17.92,0.853-34.987,5.12-50.347,12.8l6.827,11.947 c0.853,1.707,0.853,4.267-1.707,5.973c-1.707,0.853-4.267,0.853-5.973-1.707l-6.827-11.947c-15.36,8.533-29.013,21.333-39.253,35.84 l14.507,8.533c1.707,0.853,2.56,3.413,1.707,5.973c-0.853,1.707-3.413,2.56-5.973,1.707l-14.507-8.533 c-9.387,15.36-15.36,33.28-17.92,52.053h11.947c2.56,0,4.267,1.707,4.267,4.267s-1.707,4.267-4.267,4.267h-12.8 c0,1.707,0,2.56,0,4.267v55.467h12.8c2.56,0,4.267,1.707,4.267,4.267c0,2.56-1.707,4.267-4.267,4.267h-12.8v59.733h12.8 c2.56,0,4.267,1.707,4.267,4.267c0,2.56-1.707,4.267-4.267,4.267h-12.8v59.733h12.8c2.56,0,4.267,1.707,4.267,4.267 c0,2.56-1.707,4.267-4.267,4.267h-12.8v110.933h320c2.56,0,4.267,1.707,4.267,4.267C453.12,502.614,450.56,503.467,448,503.467z M55.467,503.467h-51.2C1.707,503.467,0,501.76,0,499.2c0-2.56,1.707-4.267,4.267-4.267h51.2c2.56,0,4.267,1.707,4.267,4.267 C59.733,501.76,58.027,503.467,55.467,503.467z M200.533,469.333c-2.56,0-4.267-1.707-4.267-4.267v-85.333 c0-2.56,1.707-4.267,4.267-4.267s4.267,1.707,4.267,4.267v85.333C204.8,467.627,203.093,469.333,200.533,469.333z M302.933,452.267 c-2.56,0-4.267-1.707-4.267-4.267v-34.133c0-2.56,1.707-4.267,4.267-4.267s4.267,1.707,4.267,4.267V448 C307.2,450.56,305.493,452.267,302.933,452.267z M251.733,435.2c-2.56,0-4.267-1.707-4.267-4.267v-102.4 c0-2.56,1.707-4.267,4.267-4.267c2.56,0,4.267,1.707,4.267,4.267v102.4C256,433.493,254.293,435.2,251.733,435.2z M302.933,366.933 c-2.56,0-4.267-1.707-4.267-4.267v-102.4c0-2.56,1.707-4.267,4.267-4.267s4.267,1.707,4.267,4.267v102.4 C307.2,365.227,305.493,366.933,302.933,366.933z M200.533,332.8c-2.56,0-4.267-1.707-4.267-4.267V294.4 c0-2.56,1.707-4.267,4.267-4.267s4.267,1.707,4.267,4.267v34.133C204.8,331.093,203.093,332.8,200.533,332.8z M251.733,281.6 c-2.56,0-4.267-1.707-4.267-4.267V243.2c0-2.56,1.707-4.267,4.267-4.267c2.56,0,4.267,1.707,4.267,4.267v34.133 C256,279.893,254.293,281.6,251.733,281.6z M200.533,247.467c-2.56,0-4.267-1.707-4.267-4.267V140.8c0-2.56,1.707-4.267,4.267-4.267 s4.267,1.707,4.267,4.267v102.4C204.8,245.76,203.093,247.467,200.533,247.467z M302.933,213.333c-2.56,0-4.267-1.707-4.267-4.267 V140.8c0-2.56,1.707-4.267,4.267-4.267s4.267,1.707,4.267,4.267v68.267C307.2,211.627,305.493,213.333,302.933,213.333z M251.733,196.267c-2.56,0-4.267-1.707-4.267-4.267v-68.267c0-2.56,1.707-4.267,4.267-4.267c2.56,0,4.267,1.707,4.267,4.267V192 C256,194.56,254.293,196.267,251.733,196.267z"/> </g>
</svg>